<svg xmlns="http://www.w3.org/2000/svg" viewBox="0 0 300 300">
  <defs>
    <linearGradient id="pf" x1="0" y1="0" x2="1" y2="1">
      <stop offset="0" stop-color="#9a9aa0"/><stop offset=".5" stop-color="#5c5c62"/><stop offset="1" stop-color="#3a3a3f"/>
    </linearGradient>
    <linearGradient id="pw" x1="0" y1="0" x2=".7" y2="1">
      <stop offset="0" stop-color="#0d1b3e"/><stop offset=".45" stop-color="#34246b"/><stop offset=".75" stop-color="#8a3a78"/><stop offset="1" stop-color="#e8744a"/>
    </linearGradient>
    <radialGradient id="pg" cx=".7" cy=".25" r=".8">
      <stop offset="0" stop-color="#ffffff" stop-opacity=".28"/><stop offset=".5" stop-color="#ffffff" stop-opacity="0"/>
    </radialGradient>
  </defs>
  <ellipse cx="150" cy="276" rx="74" ry="9" fill="#000" opacity=".10"/>
  <rect x="91" y="26" width="118" height="244" rx="27" fill="url(#pf)"/>
  <rect x="212" y="96" width="3.5" height="34" rx="1.75" fill="#7a7a80"/>
  <rect x="84.5" y="78" width="3.5" height="18" rx="1.75" fill="#7a7a80"/>
  <rect x="84.5" y="104" width="3.5" height="26" rx="1.75" fill="#7a7a80"/>
  <rect x="84.5" y="138" width="3.5" height="26" rx="1.75" fill="#7a7a80"/>
  <rect x="97" y="32" width="106" height="232" rx="22" fill="#0a0a0c"/>
  <rect x="100" y="35" width="100" height="226" rx="19" fill="url(#pw)"/>
  <rect x="100" y="35" width="100" height="226" rx="19" fill="url(#pg)"/>
  <rect x="127" y="45" width="46" height="13.5" rx="6.75" fill="#0a0a0c"/>
  <circle cx="164" cy="51.7" r="3.4" fill="#15151c"/>
  <path d="M118 35h26L98 120v-44a41 41 0 0 1 20-41z" fill="#fff" opacity=".05"/>
  <text x="150" y="118" font-family="Helvetica,Arial" font-size="30" font-weight="200" fill="#fff" text-anchor="middle" opacity=".95">09:41</text>
</svg>
